<svg width="1600" height="1000" viewBox="0 0 1600 1000" fill="none" xmlns="http://www.w3.org/2000/svg">
  <rect width="1600" height="1000" fill="#080a0f"/>
  <text x="32" y="48" fill="#f5f7fb" font-family="Arial" font-size="28" font-weight="700">OpenClaw 新版 Agent 工作台设计图</text>
  <text x="34" y="82" fill="#9aa3b2" font-family="Arial" font-size="15">InVideo Copilot 风格：左侧导航 / 中间对话任务 / 右侧状态上下文</text>

  <rect x="24" y="112" width="300" height="820" rx="18" fill="#11141b" stroke="#2a2f3a"/>
  <rect x="344" y="112" width="856" height="820" rx="18" fill="#0f1218" stroke="#2a2f3a"/>
  <rect x="1220" y="112" width="356" height="820" rx="18" fill="#11141b" stroke="#2a2f3a"/>

  <text x="44" y="148" fill="#f5f7fb" font-family="Arial" font-size="20" font-weight="700">OpenClaw</text>
  <rect x="44" y="178" width="260" height="42" rx="10" fill="#7468ff"/>
  <text x="126" y="205" fill="white" font-family="Arial" font-size="15" font-weight="700">＋ 新建任务</text>

  <g fill="#c9d0dc" font-family="Arial" font-size="15">
    <text x="62" y="258">⌂ 工作台</text>
    <text x="62" y="298">☰ 对话</text>
    <text x="62" y="338">☑ 任务</text>
    <text x="62" y="378">□ 项目</text>
    <text x="62" y="418">◇ 模板</text>
    <text x="62" y="458">▣ 知识库</text>
    <text x="62" y="498">⚙ 设置</text>
  </g>
  <line x1="44" y1="540" x2="304" y2="540" stroke="#2a2f3a"/>
  <text x="44" y="574" fill="#f5f7fb" font-family="Arial" font-size="15" font-weight="700">我的 Agents</text>
  <rect x="44" y="596" width="260" height="40" rx="10" fill="#1b1f2a"/>
  <circle cx="68" cy="616" r="13" fill="#e2a79b"/><text x="92" y="622" fill="#f5f7fb" font-family="Arial" font-size="14">One</text><text x="266" y="622" fill="#8e96a6" font-family="Arial" font-size="13">空闲</text>
  <circle cx="68" cy="660" r="13" fill="#8db7e8"/><text x="92" y="666" fill="#f5f7fb" font-family="Arial" font-size="14">Leo</text><text x="266" y="666" fill="#8e96a6" font-family="Arial" font-size="13">空闲</text>
  <circle cx="68" cy="704" r="13" fill="#90d0a6"/><text x="92" y="710" fill="#f5f7fb" font-family="Arial" font-size="14">Coder</text><text x="260" y="710" fill="#f2b84b" font-family="Arial" font-size="13">忙碌</text>
  <text x="44" y="890" fill="#9aa3b2" font-family="Arial" font-size="14">OpenClaw v0.1.0</text>

  <rect x="364" y="132" width="816" height="54" rx="12" fill="#121720"/>
  <text x="390" y="166" fill="#f5f7fb" font-family="Arial" font-size="16" font-weight="700">One</text>
  <text x="620" y="166" fill="#c9d0dc" font-family="Arial" font-size="15">任务：视频生成 - 城市夜景</text>
  <rect x="1060" y="146" width="92" height="28" rx="8" fill="#1b1f2a" stroke="#303747"/>
  <text x="1078" y="165" fill="#c9d0dc" font-family="Arial" font-size="13">自动模式</text>

  <circle cx="396" cy="234" r="16" fill="#d5dae4"/><text x="426" y="240" fill="#f5f7fb" font-family="Arial" font-size="14">用户</text>
  <rect x="456" y="212" width="410" height="44" rx="12" fill="#222733"/>
  <text x="476" y="239" fill="#f5f7fb" font-family="Arial" font-size="14">帮我生成一个赛博朋克城市夜景短视频。</text>

  <circle cx="396" cy="308" r="16" fill="#e2a79b"/><text x="426" y="314" fill="#f5f7fb" font-family="Arial" font-size="14">One</text>
  <rect x="426" y="340" width="520" height="214" rx="12" fill="#171b24" stroke="#343b4b"/>
  <text x="452" y="374" fill="#51d88a" font-family="Arial" font-size="14">✓ 需求分析</text>
  <text x="452" y="414" fill="#51d88a" font-family="Arial" font-size="14">✓ 搜索参考素材</text>
  <text x="452" y="454" fill="#51d88a" font-family="Arial" font-size="14">✓ 生成分镜</text>
  <text x="452" y="494" fill="#9fc2ff" font-family="Arial" font-size="14">◌ 生成视频 60%</text>
  <rect x="452" y="510" width="120" height="54" rx="8" fill="#243047"/>
  <rect x="586" y="510" width="120" height="54" rx="8" fill="#243047"/>
  <rect x="720" y="510" width="120" height="54" rx="8" fill="#243047"/>
  <text x="452" y="592" fill="#c9d0dc" font-family="Arial" font-size="13">shot_list.md</text>
  <text x="566" y="592" fill="#c9d0dc" font-family="Arial" font-size="13">concept.png</text>
  <text x="690" y="592" fill="#c9d0dc" font-family="Arial" font-size="13">preview.mp4</text>

  <rect x="364" y="822" width="816" height="74" rx="14" fill="#151a23" stroke="#343b4b"/>
  <text x="390" y="865" fill="#7d8798" font-family="Arial" font-size="15">发送消息给 One...  支持 @Agent / @文件 / 命令 / 附件</text>
  <rect x="1110" y="842" width="42" height="36" rx="10" fill="#7468ff"/><text x="1124" y="865" fill="white" font-family="Arial" font-size="15">➜</text>

  <text x="1244" y="150" fill="#f5f7fb" font-family="Arial" font-size="16" font-weight="700">项目成员</text>
  <circle cx="1258" cy="196" r="13" fill="#d5dae4"/><text x="1282" y="202" fill="#f5f7fb" font-family="Arial" font-size="14">用户</text><text x="1498" y="202" fill="#8e96a6" font-family="Arial" font-size="13">Owner</text>
  <circle cx="1258" cy="236" r="13" fill="#e2a79b"/><text x="1282" y="242" fill="#f5f7fb" font-family="Arial" font-size="14">One</text><text x="1506" y="242" fill="#8e96a6" font-family="Arial" font-size="13">Agent</text>
  <circle cx="1258" cy="276" r="13" fill="#8db7e8"/><text x="1282" y="282" fill="#f5f7fb" font-family="Arial" font-size="14">Leo</text><text x="1506" y="282" fill="#8e96a6" font-family="Arial" font-size="13">Agent</text>
  <line x1="1244" y1="322" x2="1552" y2="322" stroke="#2a2f3a"/>

  <text x="1244" y="360" fill="#f5f7fb" font-family="Arial" font-size="16" font-weight="700">任务状态</text>
  <rect x="1244" y="382" width="308" height="208" rx="12" fill="#171b24" stroke="#343b4b"/>
  <text x="1264" y="420" fill="#f5f7fb" font-family="Arial" font-size="14" font-weight="700">视频生成 - 城市夜景</text>
  <rect x="1264" y="444" width="248" height="8" rx="4" fill="#2b3140"/><rect x="1264" y="444" width="150" height="8" rx="4" fill="#7468ff"/>
  <text x="1470" y="438" fill="#9aa3b2" font-family="Arial" font-size="13">60%</text>
  <text x="1264" y="486" fill="#51d88a" font-family="Arial" font-size="14">✓ 需求分析</text>
  <text x="1264" y="526" fill="#51d88a" font-family="Arial" font-size="14">✓ 搜索素材</text>
  <text x="1264" y="566" fill="#9fc2ff" font-family="Arial" font-size="14">◌ 生成视频</text>

  <text x="1244" y="636" fill="#f5f7fb" font-family="Arial" font-size="16" font-weight="700">上下文</text>
  <rect x="1244" y="660" width="308" height="112" rx="12" fill="#171b24" stroke="#343b4b"/>
  <text x="1264" y="698" fill="#c9d0dc" font-family="Arial" font-size="14">📄 Notebook - Page 1</text>
  <text x="1264" y="732" fill="#c9d0dc" font-family="Arial" font-size="14">🖼 参考图 - 城市夜景.png</text>
  <text x="1264" y="766" fill="#c9d0dc" font-family="Arial" font-size="14">📝 脚本 - cyberpunk.txt</text>

  <text x="1244" y="820" fill="#f5f7fb" font-family="Arial" font-size="16" font-weight="700">快捷操作</text>
  <rect x="1244" y="842" width="150" height="44" rx="10" fill="#171b24" stroke="#343b4b"/><text x="1276" y="870" fill="#c9d0dc" font-family="Arial" font-size="14">添加文件</text>
  <rect x="1402" y="842" width="150" height="44" rx="10" fill="#171b24" stroke="#343b4b"/><text x="1434" y="870" fill="#c9d0dc" font-family="Arial" font-size="14">打开设置</text>
</svg>
